<svg width="33" height="32" viewBox="0 0 33 32" fill="none" xmlns="http://www.w3.org/2000/svg">
<path d="M31.1666 8.00001V2.66668C31.1666 2.31305 31.0261 1.97392 30.7761 1.72387C30.526 1.47382 30.1869 1.33334 29.8333 1.33334H3.16659C2.81296 1.33334 2.47382 1.47382 2.22378 1.72387C1.97373 1.97392 1.83325 2.31305 1.83325 2.66668V8.00001H31.1666Z" fill="#1DB5BE"/>
<path d="M1.83325 10.6667V29.3334C1.83325 29.687 1.97373 30.0261 2.22378 30.2762C2.47382 30.5262 2.81296 30.6667 3.16659 30.6667H9.83325V10.6667H1.83325Z" fill="#C4B5FD"/>
<path d="M12.5 30.6667H29.8333C30.187 30.6667 30.5261 30.5262 30.7761 30.2762C31.0262 30.0261 31.1667 29.687 31.1667 29.3334V10.6667H12.5V30.6667Z" fill="#7C3AED"/>
</svg>
