<svg width="33" height="32" viewBox="0 0 33 32" fill="none" xmlns="http://www.w3.org/2000/svg">
<path d="M28.5001 32H16.5001C16.1465 32 15.8073 31.8595 15.5573 31.6095C15.3072 31.3594 15.1667 31.0203 15.1667 30.6667V28C15.1667 27.6464 15.3072 27.3072 15.5573 27.0572C15.8073 26.8071 16.1465 26.6667 16.5001 26.6667H28.5001C28.8537 26.6667 29.1928 26.8071 29.4429 27.0572C29.6929 27.3072 29.8334 27.6464 29.8334 28V30.6667C29.8334 31.0203 29.6929 31.3594 29.4429 31.6095C29.1928 31.8595 28.8537 32 28.5001 32Z" fill="#C4B5FD"/>
<path d="M28.5001 0H4.50008C4.14646 0 3.80732 0.140475 3.55727 0.390523C3.30722 0.640572 3.16675 0.979711 3.16675 1.33333V4C3.16675 4.35362 3.30722 4.69276 3.55727 4.94281C3.80732 5.19286 4.14646 5.33333 4.50008 5.33333H28.5001C28.8537 5.33333 29.1928 5.19286 29.4429 4.94281C29.6929 4.69276 29.8334 4.35362 29.8334 4V1.33333C29.8334 0.979711 29.6929 0.640572 29.4429 0.390523C29.1928 0.140475 28.8537 0 28.5001 0Z" fill="#1DB5BE"/>
<path d="M28.5001 8H4.50008C4.14646 8 3.80732 8.14047 3.55727 8.39052C3.30722 8.64057 3.16675 8.97971 3.16675 9.33333V22.6667C3.16675 23.0203 3.30722 23.3594 3.55727 23.6095C3.80732 23.8595 4.14646 24 4.50008 24H28.5001C28.8537 24 29.1928 23.8595 29.4429 23.6095C29.6929 23.3594 29.8334 23.0203 29.8334 22.6667V9.33333C29.8334 8.97971 29.6929 8.64057 29.4429 8.39052C29.1928 8.14047 28.8537 8 28.5001 8Z" fill="#7C3AED"/>
</svg>
