<svg width="33" height="32" viewBox="0 0 33 32" fill="none" xmlns="http://www.w3.org/2000/svg">
<g clip-path="url(#clip0_2514_537)">
<path d="M24.5 13.3333H32.5L28.5 8L24.5 13.3333ZM24.5 18.6667H32.5L28.5 24L24.5 18.6667Z" fill="#C4B5FD"/>
<path d="M1.83333 0H9.83333V32H1.83333C1.47971 32 1.14057 31.8595 0.890523 31.6095C0.640475 31.3594 0.5 31.0203 0.5 30.6667V1.33333C0.5 0.979711 0.640475 0.640572 0.890523 0.390523C1.14057 0.140475 1.47971 0 1.83333 0Z" fill="#7C3AED"/>
<path d="M12.5 0H20.5C20.8536 0 21.1928 0.140475 21.4428 0.390523C21.6929 0.640572 21.8333 0.979711 21.8333 1.33333V30.6667C21.8333 31.0203 21.6929 31.3594 21.4428 31.6095C21.1928 31.8595 20.8536 32 20.5 32H12.5V0Z" fill="#1DB5BE"/>
</g>
<defs>
<clipPath id="clip0_2514_537">
<rect width="32" height="32" fill="white" transform="translate(0.5)"/>
</clipPath>
</defs>
</svg>
